<svg width="235" height="71" viewBox="0 0 235 71" fill="none" xmlns="http://www.w3.org/2000/svg">
<path d="M15.5458 1.0459H1.71094V69.9971H15.5458V1.0459Z" stroke="#8DB12A" stroke-width="2" stroke-miterlimit="10"/>
<path d="M154.124 1.0459H140.289V69.9971H154.124V1.0459Z" stroke="#8DB12A" stroke-width="2" stroke-miterlimit="10"/>
<path d="M37.706 1.0459H23.8711V69.9971H37.706V1.0459Z" stroke="#8DB12A" stroke-width="2" stroke-miterlimit="10"/>
<path d="M42.8398 69.997V55.8115C53.6978 55.8115 62.5423 46.7577 62.5423 35.6099C62.5423 24.4621 53.7122 15.4082 42.8398 15.4082V1.20801C61.3343 1.20801 76.3772 16.6321 76.3772 35.5951C76.3772 54.5582 61.3343 69.9822 42.8398 69.9822V69.997Z" stroke="#8DB12A" stroke-width="2" stroke-miterlimit="10"/>
<path d="M129.402 41.0208H115.568C115.568 35.4322 111.138 30.8905 105.688 30.8905C100.237 30.8905 95.8075 35.4322 95.8075 41.0208H81.9727C81.9727 27.6169 92.6149 16.7051 105.688 16.7051C118.76 16.7051 129.402 27.6169 129.402 41.0208Z" stroke="#8DB12A" stroke-width="2" stroke-miterlimit="10"/>
<path d="M105.688 69.9954C92.6149 69.9954 81.9727 59.0836 81.9727 45.6797H95.8075C95.8075 51.2683 100.237 55.81 105.688 55.81V69.9954Z" stroke="#8DB12A" stroke-width="2" stroke-miterlimit="10"/>
<path d="M173.639 1.00098H159.258L178.198 69.9964H192.565L173.639 1.00098Z" stroke="#8DB12A" stroke-width="2" stroke-miterlimit="10"/>
<path d="M226.288 35.4179L215.948 21.2178H201.121L218.882 45.6073L201.121 69.9967H215.948L226.288 55.7966L233.709 45.6073L226.288 35.4179Z" stroke="#8DB12A" stroke-width="2" stroke-miterlimit="10"/>
</svg>
