<svg width="235" height="71" viewBox="0 0 235 71" fill="none" xmlns="http://www.w3.org/2000/svg">
<path d="M55.4698 1.04395L41.5664 1.04395L41.5664 69.996H55.4698L55.4698 1.04395Z" stroke="#B183F0" stroke-width="2" stroke-miterlimit="10"/>
<path d="M194.735 1.04395L180.832 1.04395V69.996H194.735V1.04395Z" stroke="#B183F0" stroke-width="2" stroke-miterlimit="10"/>
<path d="M77.7393 1.04395L63.8359 1.04395L63.8359 69.996H77.7393L77.7393 1.04395Z" stroke="#B183F0" stroke-width="2" stroke-miterlimit="10"/>
<path d="M82.9023 69.9958V55.8102C93.814 55.8102 102.702 46.7562 102.702 35.6083C102.702 24.4751 93.8285 15.4063 82.9023 15.4063V1.2207C101.488 1.2207 116.606 16.645 116.606 35.6083C116.606 54.5716 101.488 69.9958 82.9023 69.9958Z" stroke="#B183F0" stroke-width="2" stroke-miterlimit="10"/>
<path d="M169.891 41.0202H155.988C155.988 35.4315 151.536 30.8897 146.059 30.8897C140.581 30.8897 136.13 35.4315 136.13 41.0202H122.227C122.227 27.6161 132.921 16.7041 146.059 16.7041C159.196 16.7041 169.891 27.6161 169.891 41.0202Z" stroke="#B183F0" stroke-width="2" stroke-miterlimit="10"/>
<path d="M146.059 69.9958C132.921 69.9958 122.227 59.0838 122.227 45.6797H136.13C136.13 51.2684 140.581 55.8102 146.059 55.8102V69.9958Z" stroke="#B183F0" stroke-width="2" stroke-miterlimit="10"/>
<path d="M214.347 1L199.895 1L218.929 69.9963H233.381L214.347 1Z" stroke="#B183F0" stroke-width="2" stroke-miterlimit="10"/>
<path d="M34.105 21.2178L19.2044 21.2178L8.81299 35.4181L1.35547 45.6076L8.81299 55.797L19.2044 69.9974H34.105L16.2561 45.6076L34.105 21.2178Z" stroke="#B183F0" stroke-width="2" stroke-miterlimit="10"/>
</svg>
