<svg width="381" height="40" viewBox="0 0 381 40" fill="none" xmlns="http://www.w3.org/2000/svg">
<path d="M7.57774 27.7096L8.39367 27.1314L8.39363 27.1313L7.57774 27.7096ZM15.3498 38.6781L14.5339 39.2563L14.8328 39.6781H15.3498V38.6781ZM2 19.8391L1.18411 19.2609L0.77434 19.8391L1.18411 20.4173L2 19.8391ZM7.57774 11.9686L8.39363 12.5468L8.39367 12.5467L7.57774 11.9686ZM15.3498 1V0H14.8328L14.5339 0.42185L15.3498 1ZM26.4945 1L27.3104 1.57818L28.4287 0H26.4945V1ZM13.1447 19.8391L12.3287 19.2609L11.919 19.8391L12.3287 20.4172L13.1447 19.8391ZM26.4945 38.6781V39.6781H28.4287L27.3104 38.1L26.4945 38.6781ZM31.0722 27.7096L31.8882 27.1314L31.8881 27.1313L31.0722 27.7096ZM38.8443 38.6781L38.0284 39.2563L38.3273 39.6781H38.8443V38.6781ZM25.4945 19.8391L24.6786 19.2609L24.2688 19.8391L24.6786 20.4173L25.4945 19.8391ZM31.0722 11.9686L31.8881 12.5468L31.8882 12.5467L31.0722 11.9686ZM38.8443 1V0H38.3273L38.0284 0.42185L38.8443 1ZM49.989 1L50.8049 1.57818L51.9232 0H49.989V1ZM36.6391 19.8391L35.8232 19.2609L35.4135 19.8391L35.8232 20.4172L36.6391 19.8391ZM49.989 38.6781V39.6781H51.9232L50.8049 38.1L49.989 38.6781ZM62.3388 38.6781L61.5229 39.2563L61.8218 39.6781H62.3388V38.6781ZM54.5667 27.7096L55.3826 27.1314L55.3826 27.1313L54.5667 27.7096ZM73.4835 38.6781V39.6781H75.4177L74.2994 38.1L73.4835 38.6781ZM60.1336 19.8391L59.3177 19.2609L58.908 19.8391L59.3177 20.4172L60.1336 19.8391ZM73.4835 1L74.2994 1.57818L75.4177 0H73.4835V1ZM62.3388 1V0H61.8218L61.5229 0.42185L62.3388 1ZM54.5667 11.9686L55.3826 12.5468L55.3826 12.5467L54.5667 11.9686ZM48.989 19.8391L48.1731 19.2609L47.7633 19.8391L48.1731 20.4173L48.989 19.8391ZM78.0612 27.7096L78.8771 27.1314L78.8771 27.1313L78.0612 27.7096ZM85.8333 38.6781L85.0173 39.2563L85.3163 39.6781H85.8333V38.6781ZM72.4835 19.8391L71.6676 19.2609L71.2578 19.8391L71.6676 20.4173L72.4835 19.8391ZM78.0612 11.9686L78.8771 12.5468L78.8771 12.5467L78.0612 11.9686ZM85.8333 1V0H85.3163L85.0173 0.42185L85.8333 1ZM96.9779 1L97.7938 1.57818L98.9122 0H96.9779V1ZM83.6281 19.8391L82.8122 19.2609L82.4025 19.8391L82.8122 20.4172L83.6281 19.8391ZM96.9779 38.6781V39.6781H98.9122L97.7938 38.1L96.9779 38.6781ZM109.328 38.6781L108.512 39.2563L108.811 39.6781H109.328V38.6781ZM101.556 27.7096L102.372 27.1314L102.372 27.1313L101.556 27.7096ZM120.472 38.6781V39.6781H122.407L121.288 38.1L120.472 38.6781ZM107.123 19.8391L106.307 19.2609L105.897 19.8391L106.307 20.4172L107.123 19.8391ZM120.472 1L121.288 1.57818L122.407 0H120.472V1ZM109.328 1V0H108.811L108.512 0.42185L109.328 1ZM101.556 11.9686L102.372 12.5468L102.372 12.5467L101.556 11.9686ZM95.9779 19.8391L95.162 19.2609L94.7523 19.8391L95.162 20.4173L95.9779 19.8391ZM125.05 27.7096L125.866 27.1314L125.866 27.1313L125.05 27.7096ZM132.822 38.6781L132.006 39.2563L132.305 39.6781H132.822V38.6781ZM119.472 19.8391L118.657 19.2609L118.247 19.8391L118.657 20.4173L119.472 19.8391ZM125.05 11.9686L125.866 12.5468L125.866 12.5467L125.05 11.9686ZM132.822 1V0H132.305L132.006 0.42185L132.822 1ZM143.967 1L144.783 1.57818L145.901 0H143.967V1ZM130.617 19.8391L129.801 19.2609L129.391 19.8391L129.801 20.4172L130.617 19.8391ZM143.967 38.6781V39.6781H145.901L144.783 38.1L143.967 38.6781ZM156.317 38.6781L155.501 39.2563L155.8 39.6781H156.317V38.6781ZM148.545 27.7096L149.361 27.1314L149.361 27.1313L148.545 27.7096ZM167.461 38.6781V39.6781H169.396L168.277 38.1L167.461 38.6781ZM154.112 19.8391L153.296 19.2609L152.886 19.8391L153.296 20.4172L154.112 19.8391ZM167.461 1L168.277 1.57818L169.396 0H167.461V1ZM156.317 1V0H155.8L155.501 0.421849L156.317 1ZM148.545 11.9686L149.361 12.5468L149.361 12.5467L148.545 11.9686ZM142.967 19.8391L142.151 19.2609L141.741 19.8391L142.151 20.4173L142.967 19.8391ZM172.039 27.7096L172.855 27.1314L172.855 27.1313L172.039 27.7096ZM179.811 38.6781L178.995 39.2563L179.294 39.6781H179.811V38.6781ZM166.461 19.8391L165.646 19.2609L165.236 19.8391L165.646 20.4173L166.461 19.8391ZM172.039 11.9686L172.855 12.5468L172.855 12.5467L172.039 11.9686ZM179.811 1V0H179.294L178.995 0.421849L179.811 1ZM190.956 1L191.772 1.57818L192.89 0H190.956V1ZM177.606 19.8391L176.79 19.2609L176.38 19.8391L176.79 20.4172L177.606 19.8391ZM190.956 38.6781V39.6781H192.89L191.772 38.1L190.956 38.6781ZM203.306 38.6781L202.49 39.2563L202.789 39.6781H203.306V38.6781ZM195.534 27.7096L196.35 27.1314L196.349 27.1313L195.534 27.7096ZM214.45 38.6781V39.6781H216.385L215.266 38.1L214.45 38.6781ZM201.101 19.8391L200.285 19.2609L199.875 19.8391L200.285 20.4172L201.101 19.8391ZM214.45 1L215.266 1.57818L216.385 0H214.45V1ZM203.306 1V0H202.789L202.49 0.42185L203.306 1ZM195.534 11.9686L196.349 12.5468L196.35 12.5467L195.534 11.9686ZM189.956 19.8391L189.14 19.2609L188.73 19.8391L189.14 20.4173L189.956 19.8391ZM219.028 27.7096L219.844 27.1314L219.844 27.1313L219.028 27.7096ZM226.8 38.6781L225.984 39.2563L226.283 39.6781H226.8V38.6781ZM213.45 19.8391L212.634 19.2609L212.225 19.8391L212.634 20.4173L213.45 19.8391ZM219.028 11.9686L219.844 12.5468L219.844 12.5467L219.028 11.9686ZM226.8 1V0H226.283L225.984 0.421849L226.8 1ZM237.945 1L238.761 1.57818L239.879 0H237.945V1ZM224.595 19.8391L223.779 19.2609L223.369 19.8391L223.779 20.4172L224.595 19.8391ZM237.945 38.6781V39.6781H239.879L238.761 38.1L237.945 38.6781ZM250.295 38.6781L249.479 39.2563L249.778 39.6781H250.295V38.6781ZM242.523 27.7096L243.338 27.1314L243.338 27.1313L242.523 27.7096ZM261.439 38.6781V39.6781H263.374L262.255 38.1L261.439 38.6781ZM248.089 19.8391L247.274 19.2609L246.864 19.8391L247.274 20.4172L248.089 19.8391ZM261.439 1L262.255 1.57818L263.374 0H261.439V1ZM250.295 1V0H249.778L249.479 0.42185L250.295 1ZM242.523 11.9686L243.338 12.5468L243.338 12.5467L242.523 11.9686ZM236.945 19.8391L236.129 19.2609L235.719 19.8391L236.129 20.4173L236.945 19.8391ZM266.017 27.7096L266.833 27.1314L266.833 27.1313L266.017 27.7096ZM273.789 38.6781L272.973 39.2563L273.272 39.6781H273.789V38.6781ZM260.439 19.8391L259.623 19.2609L259.214 19.8391L259.623 20.4173L260.439 19.8391ZM266.017 11.9686L266.833 12.5468L266.833 12.5467L266.017 11.9686ZM273.789 1V0H273.272L272.973 0.421849L273.789 1ZM284.934 1L285.75 1.57818L286.868 0H284.934V1ZM271.584 19.8391L270.768 19.2609L270.358 19.8391L270.768 20.4172L271.584 19.8391ZM284.934 38.6781V39.6781H286.868L285.75 38.1L284.934 38.6781ZM297.284 38.6781L296.468 39.2563L296.767 39.6781H297.284V38.6781ZM289.512 27.7096L290.327 27.1314L290.327 27.1313L289.512 27.7096ZM308.428 38.6781V39.6781H310.362L309.244 38.1L308.428 38.6781ZM295.078 19.8391L294.263 19.2609L293.853 19.8391L294.263 20.4172L295.078 19.8391ZM308.428 1L309.244 1.57818L310.362 0H308.428V1ZM297.284 1V0H296.767L296.468 0.421849L297.284 1ZM289.512 11.9686L290.327 12.5468L290.327 12.5467L289.512 11.9686ZM283.934 19.8391L283.118 19.2609L282.708 19.8391L283.118 20.4173L283.934 19.8391ZM313.006 27.7096L313.822 27.1314L313.822 27.1313L313.006 27.7096ZM320.778 38.6781L319.962 39.2563L320.261 39.6781H320.778V38.6781ZM307.428 19.8391L306.612 19.2609L306.203 19.8391L306.612 20.4173L307.428 19.8391ZM313.006 11.9686L313.822 12.5468L313.822 12.5467L313.006 11.9686ZM320.778 1V0H320.261L319.962 0.421849L320.778 1ZM331.923 1L332.739 1.57818L333.857 0H331.923V1ZM318.573 19.8391L317.757 19.2609L317.347 19.8391L317.757 20.4172L318.573 19.8391ZM331.923 38.6781V39.6781H333.857L332.739 38.1L331.923 38.6781ZM344.273 38.6781L343.457 39.2563L343.756 39.6781H344.273V38.6781ZM336.5 27.7096L337.316 27.1314L337.316 27.1313L336.5 27.7096ZM355.417 38.6781V39.6781H357.351L356.233 38.1L355.417 38.6781ZM342.067 19.8391L341.251 19.2609L340.842 19.8391L341.251 20.4172L342.067 19.8391ZM355.417 1L356.233 1.57818L357.351 0H355.417V1ZM344.273 1V0H343.756L343.457 0.421849L344.273 1ZM336.5 11.9686L337.316 12.5468L337.316 12.5467L336.5 11.9686ZM330.923 19.8391L330.107 19.2609L329.697 19.8391L330.107 20.4173L330.923 19.8391ZM359.995 27.7096L360.811 27.1314L360.811 27.1313L359.995 27.7096ZM367.767 38.6781L366.951 39.2563L367.25 39.6781H367.767V38.6781ZM354.417 19.8391L353.601 19.2609L353.192 19.8391L353.601 20.4173L354.417 19.8391ZM359.995 11.9686L360.811 12.5468L360.811 12.5467L359.995 11.9686ZM367.767 1V0H367.25L366.951 0.421849L367.767 1ZM378.912 1L379.728 1.57818L380.846 0H378.912V1ZM365.562 19.8391L364.746 19.2609L364.336 19.8391L364.746 20.4172L365.562 19.8391ZM378.912 38.6781V39.6781H380.846L379.728 38.1L378.912 38.6781ZM6.76181 28.2877L14.5339 39.2563L16.1658 38.1L8.39367 27.1314L6.76181 28.2877ZM1.18411 20.4173L6.76185 28.2878L8.39363 27.1313L2.81589 19.2609L1.18411 20.4173ZM6.76185 11.3904L1.18411 19.2609L2.81589 20.4173L8.39363 12.5468L6.76185 11.3904ZM14.5339 0.42185L6.76181 11.3904L8.39367 12.5467L16.1658 1.57815L14.5339 0.42185ZM26.4945 0H15.3498V2H26.4945V0ZM13.9606 20.4172L27.3104 1.57818L25.6786 0.421824L12.3287 19.2609L13.9606 20.4172ZM27.3104 38.1L13.9606 19.2609L12.3287 20.4172L25.6786 39.2563L27.3104 38.1ZM15.3498 39.6781H26.4945V37.6781H15.3498V39.6781ZM30.2563 28.2877L38.0284 39.2563L39.6602 38.1L31.8882 27.1314L30.2563 28.2877ZM24.6786 20.4173L30.2563 28.2878L31.8881 27.1313L26.3104 19.2609L24.6786 20.4173ZM30.2563 11.3904L24.6786 19.2609L26.3104 20.4173L31.8881 12.5468L30.2563 11.3904ZM38.0284 0.42185L30.2563 11.3904L31.8882 12.5467L39.6602 1.57815L38.0284 0.42185ZM49.989 0H38.8443V2H49.989V0ZM37.4551 20.4172L50.8049 1.57818L49.1731 0.421824L35.8232 19.2609L37.4551 20.4172ZM50.8049 38.1L37.4551 19.2609L35.8232 20.4172L49.1731 39.2563L50.8049 38.1ZM38.8443 39.6781H49.989V37.6781H38.8443V39.6781ZM63.1547 38.1L55.3826 27.1314L53.7508 28.2877L61.5229 39.2563L63.1547 38.1ZM73.4835 37.6781H62.3388V39.6781H73.4835V37.6781ZM59.3177 20.4172L72.6675 39.2563L74.2994 38.1L60.9495 19.2609L59.3177 20.4172ZM72.6675 0.421824L59.3177 19.2609L60.9495 20.4172L74.2994 1.57818L72.6675 0.421824ZM62.3388 2H73.4835V0H62.3388V2ZM55.3826 12.5467L63.1547 1.57815L61.5229 0.42185L53.7508 11.3904L55.3826 12.5467ZM49.8049 20.4173L55.3826 12.5468L53.7508 11.3904L48.1731 19.2609L49.8049 20.4173ZM55.3826 27.1313L49.8049 19.2609L48.1731 20.4173L53.7508 28.2878L55.3826 27.1313ZM77.2453 28.2877L85.0173 39.2563L86.6492 38.1L78.8771 27.1314L77.2453 28.2877ZM71.6676 20.4173L77.2453 28.2878L78.8771 27.1313L73.2993 19.2609L71.6676 20.4173ZM77.2453 11.3904L71.6676 19.2609L73.2993 20.4173L78.8771 12.5468L77.2453 11.3904ZM85.0173 0.42185L77.2453 11.3904L78.8771 12.5467L86.6492 1.57815L85.0173 0.42185ZM96.9779 0H85.8333V2H96.9779V0ZM84.444 20.4172L97.7938 1.57818L96.162 0.421824L82.8122 19.2609L84.444 20.4172ZM97.7938 38.1L84.444 19.2609L82.8122 20.4172L96.162 39.2563L97.7938 38.1ZM85.8333 39.6781H96.9779V37.6781H85.8333V39.6781ZM110.144 38.1L102.372 27.1314L100.74 28.2877L108.512 39.2563L110.144 38.1ZM120.472 37.6781H109.328V39.6781H120.472V37.6781ZM106.307 20.4172L119.657 39.2563L121.288 38.1L107.939 19.2609L106.307 20.4172ZM119.657 0.421824L106.307 19.2609L107.939 20.4172L121.288 1.57818L119.657 0.421824ZM109.328 2H120.472V0H109.328V2ZM102.372 12.5467L110.144 1.57815L108.512 0.42185L100.74 11.3904L102.372 12.5467ZM96.7938 20.4173L102.372 12.5468L100.74 11.3904L95.162 19.2609L96.7938 20.4173ZM102.372 27.1313L96.7938 19.2609L95.162 20.4173L100.74 28.2878L102.372 27.1313ZM124.234 28.2877L132.006 39.2563L133.638 38.1L125.866 27.1314L124.234 28.2877ZM118.657 20.4173L124.234 28.2878L125.866 27.1313L120.288 19.2609L118.657 20.4173ZM124.234 11.3904L118.657 19.2609L120.288 20.4173L125.866 12.5468L124.234 11.3904ZM132.006 0.42185L124.234 11.3904L125.866 12.5467L133.638 1.57815L132.006 0.42185ZM143.967 0H132.822V2H143.967V0ZM131.433 20.4172L144.783 1.57818L143.151 0.421824L129.801 19.2609L131.433 20.4172ZM144.783 38.1L131.433 19.2609L129.801 20.4172L143.151 39.2563L144.783 38.1ZM132.822 39.6781H143.967V37.6781H132.822V39.6781ZM157.133 38.1L149.361 27.1314L147.729 28.2877L155.501 39.2563L157.133 38.1ZM167.461 37.6781H156.317V39.6781H167.461V37.6781ZM153.296 20.4172L166.645 39.2563L168.277 38.1L154.927 19.2609L153.296 20.4172ZM166.645 0.421824L153.296 19.2609L154.927 20.4172L168.277 1.57818L166.645 0.421824ZM156.317 2H167.461V0H156.317V2ZM149.361 12.5467L157.133 1.57815L155.501 0.421849L147.729 11.3904L149.361 12.5467ZM143.783 20.4173L149.361 12.5468L147.729 11.3904L142.151 19.2609L143.783 20.4173ZM149.361 27.1313L143.783 19.2609L142.151 20.4173L147.729 28.2878L149.361 27.1313ZM171.223 28.2877L178.995 39.2563L180.627 38.1L172.855 27.1314L171.223 28.2877ZM165.646 20.4173L171.223 28.2878L172.855 27.1313L167.277 19.2609L165.646 20.4173ZM171.223 11.3904L165.646 19.2609L167.277 20.4173L172.855 12.5468L171.223 11.3904ZM178.995 0.421849L171.223 11.3904L172.855 12.5467L180.627 1.57815L178.995 0.421849ZM190.956 0H179.811V2H190.956V0ZM178.422 20.4172L191.772 1.57818L190.14 0.421824L176.79 19.2609L178.422 20.4172ZM191.772 38.1L178.422 19.2609L176.79 20.4172L190.14 39.2563L191.772 38.1ZM179.811 39.6781H190.956V37.6781H179.811V39.6781ZM204.122 38.1L196.35 27.1314L194.718 28.2877L202.49 39.2563L204.122 38.1ZM214.45 37.6781H203.306V39.6781H214.45V37.6781ZM200.285 20.4172L213.634 39.2563L215.266 38.1L201.916 19.2609L200.285 20.4172ZM213.634 0.421824L200.285 19.2609L201.916 20.4172L215.266 1.57818L213.634 0.421824ZM203.306 2H214.45V0H203.306V2ZM196.35 12.5467L204.122 1.57815L202.49 0.42185L194.718 11.3904L196.35 12.5467ZM190.772 20.4173L196.349 12.5468L194.718 11.3904L189.14 19.2609L190.772 20.4173ZM196.349 27.1313L190.772 19.2609L189.14 20.4173L194.718 28.2878L196.349 27.1313ZM218.212 28.2877L225.984 39.2563L227.616 38.1L219.844 27.1314L218.212 28.2877ZM212.634 20.4173L218.212 28.2878L219.844 27.1313L214.266 19.2609L212.634 20.4173ZM218.212 11.3904L212.634 19.2609L214.266 20.4173L219.844 12.5468L218.212 11.3904ZM225.984 0.421849L218.212 11.3904L219.844 12.5467L227.616 1.57815L225.984 0.421849ZM237.945 0H226.8V2H237.945V0ZM225.411 20.4172L238.761 1.57818L237.129 0.421824L223.779 19.2609L225.411 20.4172ZM238.761 38.1L225.411 19.2609L223.779 20.4172L237.129 39.2563L238.761 38.1ZM226.8 39.6781H237.945V37.6781H226.8V39.6781ZM251.111 38.1L243.338 27.1314L241.707 28.2877L249.479 39.2563L251.111 38.1ZM261.439 37.6781H250.295V39.6781H261.439V37.6781ZM247.274 20.4172L260.623 39.2563L262.255 38.1L248.905 19.2609L247.274 20.4172ZM260.623 0.421824L247.274 19.2609L248.905 20.4172L262.255 1.57818L260.623 0.421824ZM250.295 2H261.439V0H250.295V2ZM243.338 12.5467L251.111 1.57815L249.479 0.42185L241.707 11.3904L243.338 12.5467ZM237.761 20.4173L243.338 12.5468L241.707 11.3904L236.129 19.2609L237.761 20.4173ZM243.338 27.1313L237.761 19.2609L236.129 20.4173L241.707 28.2878L243.338 27.1313ZM265.201 28.2877L272.973 39.2563L274.605 38.1L266.833 27.1314L265.201 28.2877ZM259.623 20.4173L265.201 28.2878L266.833 27.1313L261.255 19.2609L259.623 20.4173ZM265.201 11.3904L259.623 19.2609L261.255 20.4173L266.833 12.5468L265.201 11.3904ZM272.973 0.421849L265.201 11.3904L266.833 12.5467L274.605 1.57815L272.973 0.421849ZM284.934 0H273.789V2H284.934V0ZM272.4 20.4172L285.75 1.57818L284.118 0.421824L270.768 19.2609L272.4 20.4172ZM285.75 38.1L272.4 19.2609L270.768 20.4172L284.118 39.2563L285.75 38.1ZM273.789 39.6781H284.934V37.6781H273.789V39.6781ZM298.1 38.1L290.327 27.1314L288.696 28.2877L296.468 39.2563L298.1 38.1ZM308.428 37.6781H297.284V39.6781H308.428V37.6781ZM294.263 20.4172L307.612 39.2563L309.244 38.1L295.894 19.2609L294.263 20.4172ZM307.612 0.421824L294.263 19.2609L295.894 20.4172L309.244 1.57818L307.612 0.421824ZM297.284 2H308.428V0H297.284V2ZM290.327 12.5467L298.1 1.57815L296.468 0.421849L288.696 11.3904L290.327 12.5467ZM284.75 20.4173L290.327 12.5468L288.696 11.3904L283.118 19.2609L284.75 20.4173ZM290.327 27.1313L284.75 19.2609L283.118 20.4173L288.696 28.2878L290.327 27.1313ZM312.19 28.2877L319.962 39.2563L321.594 38.1L313.822 27.1314L312.19 28.2877ZM306.612 20.4173L312.19 28.2878L313.822 27.1313L308.244 19.2609L306.612 20.4173ZM312.19 11.3904L306.612 19.2609L308.244 20.4173L313.822 12.5468L312.19 11.3904ZM319.962 0.421849L312.19 11.3904L313.822 12.5467L321.594 1.57815L319.962 0.421849ZM331.923 0H320.778V2H331.923V0ZM319.389 20.4172L332.739 1.57818L331.107 0.421824L317.757 19.2609L319.389 20.4172ZM332.739 38.1L319.389 19.2609L317.757 20.4172L331.107 39.2563L332.739 38.1ZM320.778 39.6781H331.923V37.6781H320.778V39.6781ZM345.088 38.1L337.316 27.1314L335.685 28.2877L343.457 39.2563L345.088 38.1ZM355.417 37.6781H344.273V39.6781H355.417V37.6781ZM341.251 20.4172L354.601 39.2563L356.233 38.1L342.883 19.2609L341.251 20.4172ZM354.601 0.421824L341.251 19.2609L342.883 20.4172L356.233 1.57818L354.601 0.421824ZM344.273 2H355.417V0H344.273V2ZM337.316 12.5467L345.088 1.57815L343.457 0.421849L335.685 11.3904L337.316 12.5467ZM331.739 20.4173L337.316 12.5468L335.685 11.3904L330.107 19.2609L331.739 20.4173ZM337.316 27.1313L331.739 19.2609L330.107 20.4173L335.685 28.2878L337.316 27.1313ZM359.179 28.2877L366.951 39.2563L368.583 38.1L360.811 27.1314L359.179 28.2877ZM353.601 20.4173L359.179 28.2878L360.811 27.1313L355.233 19.2609L353.601 20.4173ZM359.179 11.3904L353.601 19.2609L355.233 20.4173L360.811 12.5468L359.179 11.3904ZM366.951 0.421849L359.179 11.3904L360.811 12.5467L368.583 1.57815L366.951 0.421849ZM378.912 0H367.767V2H378.912V0ZM366.378 20.4172L379.728 1.57818L378.096 0.421824L364.746 19.2609L366.378 20.4172ZM379.728 38.1L366.378 19.2609L364.746 20.4172L378.096 39.2563L379.728 38.1ZM367.767 39.6781H378.912V37.6781H367.767V39.6781Z" fill="url(#paint0_linear_488_1578)"/>
<defs>
<linearGradient id="paint0_linear_488_1578" x1="213.227" y1="25.3085" x2="4.00001" y2="25.3085" gradientUnits="userSpaceOnUse">
<stop offset="0.385959" stop-color="#B183F0"/>
<stop offset="0.781105" stop-color="#8DB12A"/>
</linearGradient>
</defs>
</svg>
