<svg width="381" height="40" viewBox="0 0 381 40" fill="none" xmlns="http://www.w3.org/2000/svg">
<path d="M20.9167 11.9077L20.1023 12.488L20.1024 12.4881L20.9167 11.9077ZM13.1447 1L13.9591 0.41971L13.66 0H13.1447V1ZM26.4945 19.7346L27.3088 20.3149L27.7224 19.7346L27.3088 19.1542L26.4945 19.7346ZM20.9167 27.5614L20.1024 26.9811L20.1023 26.9811L20.9167 27.5614ZM13.1447 38.4692V39.4692H13.66L13.9591 39.0495L13.1447 38.4692ZM2 38.4692L1.18561 37.8889L0.0595131 39.4692H2V38.4692ZM15.3498 19.7346L16.1642 20.3149L16.5777 19.7346L16.1642 19.1543L15.3498 19.7346ZM2 1V0H0.0595131L1.18561 1.58032L2 1ZM44.4112 11.9077L43.5968 12.488L43.5969 12.4881L44.4112 11.9077ZM36.6391 1L37.4536 0.41971L37.1545 0H36.6391V1ZM49.989 19.7346L50.8033 20.3149L51.2169 19.7346L50.8033 19.1542L49.989 19.7346ZM44.4112 27.5614L43.5969 26.9811L43.5968 26.9811L44.4112 27.5614ZM36.6391 38.4692V39.4692H37.1545L37.4536 39.0495L36.6391 38.4692ZM25.4945 38.4692L24.6801 37.8889L23.554 39.4692H25.4945V38.4692ZM38.8443 19.7346L39.6587 20.3149L40.0722 19.7346L39.6587 19.1543L38.8443 19.7346ZM25.4945 1V0H23.554L24.6801 1.58032L25.4945 1ZM60.1336 1L60.948 0.41971L60.649 0H60.1336V1ZM67.9057 11.9077L67.0913 12.488L67.0913 12.4881L67.9057 11.9077ZM48.989 1V0H47.0485L48.1746 1.58032L48.989 1ZM62.3388 19.7346L63.1532 20.3149L63.5667 19.7346L63.1532 19.1543L62.3388 19.7346ZM48.989 38.4692L48.1746 37.8889L47.0485 39.4692H48.989V38.4692ZM60.1336 38.4692V39.4692H60.649L60.948 39.0495L60.1336 38.4692ZM67.9057 27.5614L67.0913 26.9811L67.0913 26.9811L67.9057 27.5614ZM73.4835 19.7346L74.2978 20.3149L74.7114 19.7346L74.2978 19.1542L73.4835 19.7346ZM91.4002 11.9077L90.5858 12.488L90.5858 12.4881L91.4002 11.9077ZM83.6281 1L84.4425 0.41971L84.1435 0H83.6281V1ZM96.9779 19.7346L97.7923 20.3149L98.2059 19.7346L97.7923 19.1542L96.9779 19.7346ZM91.4002 27.5614L90.5858 26.9811L90.5858 26.9811L91.4002 27.5614ZM83.6281 38.4692V39.4692H84.1435L84.4425 39.0495L83.6281 38.4692ZM72.4835 38.4692L71.6691 37.8889L70.543 39.4692H72.4835V38.4692ZM85.8333 19.7346L86.6477 20.3149L87.0612 19.7346L86.6477 19.1543L85.8333 19.7346ZM72.4835 1V0H70.543L71.6691 1.58032L72.4835 1ZM107.123 1L107.937 0.41971L107.638 0H107.123V1ZM114.895 11.9077L114.08 12.488L114.08 12.4881L114.895 11.9077ZM95.9779 1V0H94.0374L95.1635 1.58032L95.9779 1ZM109.328 19.7346L110.142 20.3149L110.556 19.7346L110.142 19.1543L109.328 19.7346ZM95.9779 38.4692L95.1635 37.8889L94.0374 39.4692H95.9779V38.4692ZM107.123 38.4692V39.4692H107.638L107.937 39.0495L107.123 38.4692ZM114.895 27.5614L114.08 26.9811L114.08 26.9811L114.895 27.5614ZM120.472 19.7346L121.287 20.3149L121.7 19.7346L121.287 19.1542L120.472 19.7346ZM138.389 11.9077L137.575 12.488L137.575 12.4881L138.389 11.9077ZM130.617 1L131.431 0.41971L131.132 0H130.617V1ZM143.967 19.7346L144.781 20.3149L145.195 19.7346L144.781 19.1542L143.967 19.7346ZM138.389 27.5614L137.575 26.9811L137.575 26.9811L138.389 27.5614ZM130.617 38.4692V39.4692H131.132L131.431 39.0495L130.617 38.4692ZM119.472 38.4692L118.658 37.8889L117.532 39.4692H119.472V38.4692ZM132.822 19.7346L133.637 20.3149L134.05 19.7346L133.637 19.1543L132.822 19.7346ZM119.472 1V0H117.532L118.658 1.58032L119.472 1ZM154.112 1L154.926 0.419709L154.627 0H154.112V1ZM161.884 11.9077L161.069 12.488L161.069 12.4881L161.884 11.9077ZM142.967 1V0H141.026L142.153 1.58032L142.967 1ZM156.317 19.7346L157.131 20.3149L157.545 19.7346L157.131 19.1543L156.317 19.7346ZM142.967 38.4692L142.153 37.8889L141.026 39.4692H142.967V38.4692ZM154.112 38.4692V39.4692H154.627L154.926 39.0495L154.112 38.4692ZM161.884 27.5614L161.069 26.9811L161.069 26.9811L161.884 27.5614ZM167.461 19.7346L168.276 20.3149L168.689 19.7346L168.276 19.1542L167.461 19.7346ZM185.378 11.9077L184.564 12.488L184.564 12.4881L185.378 11.9077ZM177.606 1L178.42 0.419709L178.121 0H177.606V1ZM190.956 19.7346L191.77 20.3149L192.184 19.7346L191.77 19.1542L190.956 19.7346ZM185.378 27.5614L184.564 26.9811L184.564 26.9811L185.378 27.5614ZM177.606 38.4692V39.4692H178.121L178.42 39.0495L177.606 38.4692ZM166.461 38.4692L165.647 37.8889L164.521 39.4692H166.461V38.4692ZM179.811 19.7346L180.626 20.3149L181.039 19.7346L180.626 19.1543L179.811 19.7346ZM166.461 1V0H164.521L165.647 1.58032L166.461 1ZM201.101 1L201.915 0.419709L201.616 0H201.101V1ZM208.873 11.9077L208.058 12.488L208.058 12.4881L208.873 11.9077ZM189.956 1V0H188.015L189.141 1.58032L189.956 1ZM203.306 19.7346L204.12 20.3149L204.534 19.7346L204.12 19.1543L203.306 19.7346ZM189.956 38.4692L189.141 37.8889L188.015 39.4692H189.956V38.4692ZM201.101 38.4692V39.4692H201.616L201.915 39.0495L201.101 38.4692ZM208.873 27.5614L208.058 26.9811L208.058 26.9811L208.873 27.5614ZM214.45 19.7346L215.265 20.3149L215.678 19.7346L215.265 19.1542L214.45 19.7346ZM232.367 11.9077L231.553 12.488L231.553 12.4881L232.367 11.9077ZM224.595 1L225.409 0.419709L225.11 0H224.595V1ZM237.945 19.7346L238.759 20.3149L239.173 19.7346L238.759 19.1542L237.945 19.7346ZM232.367 27.5614L231.553 26.9811L231.553 26.9811L232.367 27.5614ZM224.595 38.4692V39.4692H225.11L225.409 39.0495L224.595 38.4692ZM213.45 38.4692L212.636 37.8889L211.51 39.4692H213.45V38.4692ZM226.8 19.7346L227.615 20.3149L228.028 19.7346L227.615 19.1543L226.8 19.7346ZM213.45 1V0H211.51L212.636 1.58032L213.45 1ZM248.089 1L248.904 0.419709L248.605 0H248.089V1ZM255.862 11.9077L255.047 12.488L255.047 12.4881L255.862 11.9077ZM236.945 1V0H235.004L236.13 1.58032L236.945 1ZM250.295 19.7346L251.109 20.3149L251.523 19.7346L251.109 19.1543L250.295 19.7346ZM236.945 38.4692L236.13 37.8889L235.004 39.4692H236.945V38.4692ZM248.089 38.4692V39.4692H248.605L248.904 39.0495L248.089 38.4692ZM255.862 27.5614L255.047 26.9811L255.047 26.9811L255.862 27.5614ZM261.439 19.7346L262.254 20.3149L262.667 19.7346L262.254 19.1542L261.439 19.7346ZM279.356 11.9077L278.542 12.488L278.542 12.4881L279.356 11.9077ZM271.584 1L272.398 0.419709L272.099 0H271.584V1ZM284.934 19.7346L285.748 20.3149L286.162 19.7346L285.748 19.1542L284.934 19.7346ZM279.356 27.5614L278.542 26.9811L278.542 26.9811L279.356 27.5614ZM271.584 38.4692V39.4692H272.099L272.398 39.0495L271.584 38.4692ZM260.439 38.4692L259.625 37.8889L258.499 39.4692H260.439V38.4692ZM273.789 19.7346L274.604 20.3149L275.017 19.7346L274.604 19.1543L273.789 19.7346ZM260.439 1V0H258.499L259.625 1.58032L260.439 1ZM295.078 1L295.893 0.419709L295.594 0H295.078V1ZM302.851 11.9077L302.036 12.488L302.036 12.4881L302.851 11.9077ZM283.934 1V0H281.993L283.119 1.58032L283.934 1ZM297.284 19.7346L298.098 20.3149L298.512 19.7346L298.098 19.1543L297.284 19.7346ZM283.934 38.4692L283.119 37.8889L281.993 39.4692H283.934V38.4692ZM295.078 38.4692V39.4692H295.594L295.893 39.0495L295.078 38.4692ZM302.851 27.5614L302.036 26.9811L302.036 26.9811L302.851 27.5614ZM308.428 19.7346L309.243 20.3149L309.656 19.7346L309.243 19.1542L308.428 19.7346ZM326.345 11.9077L325.531 12.488L325.531 12.4881L326.345 11.9077ZM318.573 1L319.387 0.419709L319.088 0H318.573V1ZM331.923 19.7346L332.737 20.3149L333.151 19.7346L332.737 19.1542L331.923 19.7346ZM326.345 27.5614L325.531 26.9811L325.531 26.9811L326.345 27.5614ZM318.573 38.4692V39.4692H319.088L319.387 39.0495L318.573 38.4692ZM307.428 38.4692L306.614 37.8889L305.488 39.4692H307.428V38.4692ZM320.778 19.7346L321.592 20.3149L322.006 19.7346L321.592 19.1543L320.778 19.7346ZM307.428 1V0H305.488L306.614 1.58032L307.428 1ZM342.067 1L342.882 0.419709L342.583 0H342.067V1ZM349.839 11.9077L349.025 12.488L349.025 12.4881L349.839 11.9077ZM330.923 1V0H328.982L330.108 1.58032L330.923 1ZM344.273 19.7346L345.087 20.3149L345.5 19.7346L345.087 19.1543L344.273 19.7346ZM330.923 38.4692L330.108 37.8889L328.982 39.4692H330.923V38.4692ZM342.067 38.4692V39.4692H342.583L342.882 39.0495L342.067 38.4692ZM349.839 27.5614L349.025 26.9811L349.025 26.9811L349.839 27.5614ZM355.417 19.7346L356.232 20.3149L356.645 19.7346L356.232 19.1542L355.417 19.7346ZM373.334 11.9077L372.52 12.488L372.52 12.4881L373.334 11.9077ZM365.562 1L366.376 0.419709L366.077 0H365.562V1ZM378.912 19.7346L379.726 20.3149L380.14 19.7346L379.726 19.1542L378.912 19.7346ZM373.334 27.5614L372.52 26.9811L372.52 26.9811L373.334 27.5614ZM365.562 38.4692V39.4692H366.077L366.376 39.0495L365.562 38.4692ZM354.417 38.4692L353.603 37.8889L352.477 39.4692H354.417V38.4692ZM367.767 19.7346L368.581 20.3149L368.995 19.7346L368.581 19.1543L367.767 19.7346ZM354.417 1V0H352.477L353.603 1.58032L354.417 1ZM21.7312 11.3275L13.9591 0.41971L12.3303 1.58029L20.1023 12.488L21.7312 11.3275ZM27.3088 19.1542L21.7311 11.3274L20.1024 12.4881L25.6801 20.3149L27.3088 19.1542ZM21.7311 28.1418L27.3088 20.3149L25.6801 19.1542L20.1024 26.9811L21.7311 28.1418ZM13.9591 39.0495L21.7312 28.1417L20.1023 26.9811L12.3303 37.8889L13.9591 39.0495ZM2 39.4692H13.1447V37.4692H2V39.4692ZM14.5354 19.1543L1.18561 37.8889L2.81439 39.0495L16.1642 20.3149L14.5354 19.1543ZM1.18561 1.58032L14.5354 20.3149L16.1642 19.1543L2.81439 0.419684L1.18561 1.58032ZM13.1447 0H2V2H13.1447V0ZM45.2256 11.3275L37.4536 0.41971L35.8247 1.58029L43.5968 12.488L45.2256 11.3275ZM50.8033 19.1542L45.2256 11.3274L43.5969 12.4881L49.1746 20.3149L50.8033 19.1542ZM45.2256 28.1418L50.8033 20.3149L49.1746 19.1542L43.5969 26.9811L45.2256 28.1418ZM37.4536 39.0495L45.2256 28.1417L43.5968 26.9811L35.8247 37.8889L37.4536 39.0495ZM25.4945 39.4692H36.6391V37.4692H25.4945V39.4692ZM38.0299 19.1543L24.6801 37.8889L26.3089 39.0495L39.6587 20.3149L38.0299 19.1543ZM24.6801 1.58032L38.0299 20.3149L39.6587 19.1543L26.3089 0.419684L24.6801 1.58032ZM36.6391 0H25.4945V2H36.6391V0ZM59.3192 1.58029L67.0913 12.488L68.7201 11.3275L60.948 0.41971L59.3192 1.58029ZM48.989 2H60.1336V0H48.989V2ZM63.1532 19.1543L49.8034 0.419684L48.1746 1.58032L61.5244 20.3149L63.1532 19.1543ZM49.8034 39.0495L63.1532 20.3149L61.5244 19.1543L48.1746 37.8889L49.8034 39.0495ZM60.1336 37.4692H48.989V39.4692H60.1336V37.4692ZM67.0913 26.9811L59.3192 37.8889L60.948 39.0495L68.7201 28.1417L67.0913 26.9811ZM72.6691 19.1542L67.0913 26.9811L68.7201 28.1418L74.2978 20.3149L72.6691 19.1542ZM67.0913 12.4881L72.6691 20.3149L74.2978 19.1542L68.7201 11.3274L67.0913 12.4881ZM92.2146 11.3275L84.4425 0.41971L82.8137 1.58029L90.5858 12.488L92.2146 11.3275ZM97.7923 19.1542L92.2146 11.3274L90.5858 12.4881L96.1636 20.3149L97.7923 19.1542ZM92.2146 28.1418L97.7923 20.3149L96.1636 19.1542L90.5858 26.9811L92.2146 28.1418ZM84.4425 39.0495L92.2146 28.1417L90.5858 26.9811L82.8137 37.8889L84.4425 39.0495ZM72.4835 39.4692H83.6281V37.4692H72.4835V39.4692ZM85.0189 19.1543L71.6691 37.8889L73.2978 39.0495L86.6477 20.3149L85.0189 19.1543ZM71.6691 1.58032L85.0189 20.3149L86.6477 19.1543L73.2978 0.419684L71.6691 1.58032ZM83.6281 0H72.4835V2H83.6281V0ZM106.308 1.58029L114.08 12.488L115.709 11.3275L107.937 0.41971L106.308 1.58029ZM95.9779 2H107.123V0H95.9779V2ZM110.142 19.1543L96.7923 0.419684L95.1635 1.58032L108.513 20.3149L110.142 19.1543ZM96.7923 39.0495L110.142 20.3149L108.513 19.1543L95.1635 37.8889L96.7923 39.0495ZM107.123 37.4692H95.9779V39.4692H107.123V37.4692ZM114.08 26.9811L106.308 37.8889L107.937 39.0495L115.709 28.1417L114.08 26.9811ZM119.658 19.1542L114.08 26.9811L115.709 28.1418L121.287 20.3149L119.658 19.1542ZM114.08 12.4881L119.658 20.3149L121.287 19.1542L115.709 11.3274L114.08 12.4881ZM139.204 11.3275L131.431 0.41971L129.803 1.58029L137.575 12.488L139.204 11.3275ZM144.781 19.1542L139.204 11.3274L137.575 12.4881L143.153 20.3149L144.781 19.1542ZM139.204 28.1418L144.781 20.3149L143.153 19.1542L137.575 26.9811L139.204 28.1418ZM131.431 39.0495L139.204 28.1417L137.575 26.9811L129.803 37.8889L131.431 39.0495ZM119.472 39.4692H130.617V37.4692H119.472V39.4692ZM132.008 19.1543L118.658 37.8889L120.287 39.0495L133.637 20.3149L132.008 19.1543ZM118.658 1.58032L132.008 20.3149L133.637 19.1543L120.287 0.419684L118.658 1.58032ZM130.617 0H119.472V2H130.617V0ZM153.297 1.58029L161.069 12.488L162.698 11.3275L154.926 0.419709L153.297 1.58029ZM142.967 2H154.112V0H142.967V2ZM157.131 19.1543L143.781 0.419684L142.153 1.58032L155.502 20.3149L157.131 19.1543ZM143.781 39.0495L157.131 20.3149L155.502 19.1543L142.153 37.8889L143.781 39.0495ZM154.112 37.4692H142.967V39.4692H154.112V37.4692ZM161.069 26.9811L153.297 37.8889L154.926 39.0495L162.698 28.1417L161.069 26.9811ZM166.647 19.1542L161.069 26.9811L162.698 28.1418L168.276 20.3149L166.647 19.1542ZM161.069 12.4881L166.647 20.3149L168.276 19.1542L162.698 11.3274L161.069 12.4881ZM186.193 11.3275L178.42 0.419709L176.792 1.58029L184.564 12.488L186.193 11.3275ZM191.77 19.1542L186.193 11.3274L184.564 12.4881L190.142 20.3149L191.77 19.1542ZM186.193 28.1418L191.77 20.3149L190.142 19.1542L184.564 26.9811L186.193 28.1418ZM178.42 39.0495L186.193 28.1417L184.564 26.9811L176.792 37.8889L178.42 39.0495ZM166.461 39.4692H177.606V37.4692H166.461V39.4692ZM178.997 19.1543L165.647 37.8889L167.276 39.0495L180.626 20.3149L178.997 19.1543ZM165.647 1.58032L178.997 20.3149L180.626 19.1543L167.276 0.419684L165.647 1.58032ZM177.606 0H166.461V2H177.606V0ZM200.286 1.58029L208.058 12.488L209.687 11.3275L201.915 0.419709L200.286 1.58029ZM189.956 2H201.101V0H189.956V2ZM204.12 19.1543L190.77 0.419684L189.141 1.58032L202.491 20.3149L204.12 19.1543ZM190.77 39.0495L204.12 20.3149L202.491 19.1543L189.141 37.8889L190.77 39.0495ZM201.101 37.4692H189.956V39.4692H201.101V37.4692ZM208.058 26.9811L200.286 37.8889L201.915 39.0495L209.687 28.1417L208.058 26.9811ZM213.636 19.1542L208.058 26.9811L209.687 28.1418L215.265 20.3149L213.636 19.1542ZM208.058 12.4881L213.636 20.3149L215.265 19.1542L209.687 11.3274L208.058 12.4881ZM233.182 11.3275L225.409 0.419709L223.781 1.58029L231.553 12.488L233.182 11.3275ZM238.759 19.1542L233.181 11.3274L231.553 12.4881L237.13 20.3149L238.759 19.1542ZM233.181 28.1418L238.759 20.3149L237.13 19.1542L231.553 26.9811L233.181 28.1418ZM225.409 39.0495L233.182 28.1417L231.553 26.9811L223.781 37.8889L225.409 39.0495ZM213.45 39.4692H224.595V37.4692H213.45V39.4692ZM225.986 19.1543L212.636 37.8889L214.265 39.0495L227.615 20.3149L225.986 19.1543ZM212.636 1.58032L225.986 20.3149L227.615 19.1543L214.265 0.419684L212.636 1.58032ZM224.595 0H213.45V2H224.595V0ZM247.275 1.58029L255.047 12.488L256.676 11.3275L248.904 0.419709L247.275 1.58029ZM236.945 2H248.089V0H236.945V2ZM251.109 19.1543L237.759 0.419684L236.13 1.58032L249.48 20.3149L251.109 19.1543ZM237.759 39.0495L251.109 20.3149L249.48 19.1543L236.13 37.8889L237.759 39.0495ZM248.089 37.4692H236.945V39.4692H248.089V37.4692ZM255.047 26.9811L247.275 37.8889L248.904 39.0495L256.676 28.1417L255.047 26.9811ZM260.625 19.1542L255.047 26.9811L256.676 28.1418L262.254 20.3149L260.625 19.1542ZM255.047 12.4881L260.625 20.3149L262.254 19.1542L256.676 11.3274L255.047 12.4881ZM280.17 11.3275L272.398 0.419709L270.77 1.58029L278.542 12.488L280.17 11.3275ZM285.748 19.1542L280.17 11.3274L278.542 12.4881L284.119 20.3149L285.748 19.1542ZM280.17 28.1418L285.748 20.3149L284.119 19.1542L278.542 26.9811L280.17 28.1418ZM272.398 39.0495L280.17 28.1417L278.542 26.9811L270.77 37.8889L272.398 39.0495ZM260.439 39.4692H271.584V37.4692H260.439V39.4692ZM272.975 19.1543L259.625 37.8889L261.254 39.0495L274.604 20.3149L272.975 19.1543ZM259.625 1.58032L272.975 20.3149L274.604 19.1543L261.254 0.419684L259.625 1.58032ZM271.584 0H260.439V2H271.584V0ZM294.264 1.58029L302.036 12.488L303.665 11.3275L295.893 0.419709L294.264 1.58029ZM283.934 2H295.078V0H283.934V2ZM298.098 19.1543L284.748 0.419684L283.119 1.58032L296.469 20.3149L298.098 19.1543ZM284.748 39.0495L298.098 20.3149L296.469 19.1543L283.119 37.8889L284.748 39.0495ZM295.078 37.4692H283.934V39.4692H295.078V37.4692ZM302.036 26.9811L294.264 37.8889L295.893 39.0495L303.665 28.1417L302.036 26.9811ZM307.614 19.1542L302.036 26.9811L303.665 28.1418L309.243 20.3149L307.614 19.1542ZM302.036 12.4881L307.614 20.3149L309.243 19.1542L303.665 11.3274L302.036 12.4881ZM327.159 11.3275L319.387 0.419709L317.758 1.58029L325.531 12.488L327.159 11.3275ZM332.737 19.1542L327.159 11.3274L325.531 12.4881L331.108 20.3149L332.737 19.1542ZM327.159 28.1418L332.737 20.3149L331.108 19.1542L325.531 26.9811L327.159 28.1418ZM319.387 39.0495L327.159 28.1417L325.531 26.9811L317.758 37.8889L319.387 39.0495ZM307.428 39.4692H318.573V37.4692H307.428V39.4692ZM319.964 19.1543L306.614 37.8889L308.243 39.0495L321.592 20.3149L319.964 19.1543ZM306.614 1.58032L319.964 20.3149L321.592 19.1543L308.243 0.419684L306.614 1.58032ZM318.573 0H307.428V2H318.573V0ZM341.253 1.58029L349.025 12.488L350.654 11.3275L342.882 0.419709L341.253 1.58029ZM330.923 2H342.067V0H330.923V2ZM345.087 19.1543L331.737 0.419684L330.108 1.58032L343.458 20.3149L345.087 19.1543ZM331.737 39.0495L345.087 20.3149L343.458 19.1543L330.108 37.8889L331.737 39.0495ZM342.067 37.4692H330.923V39.4692H342.067V37.4692ZM349.025 26.9811L341.253 37.8889L342.882 39.0495L350.654 28.1417L349.025 26.9811ZM354.603 19.1542L349.025 26.9811L350.654 28.1418L356.232 20.3149L354.603 19.1542ZM349.025 12.4881L354.603 20.3149L356.232 19.1542L350.654 11.3274L349.025 12.4881ZM374.148 11.3275L366.376 0.419709L364.747 1.58029L372.52 12.488L374.148 11.3275ZM379.726 19.1542L374.148 11.3274L372.52 12.4881L378.097 20.3149L379.726 19.1542ZM374.148 28.1418L379.726 20.3149L378.097 19.1542L372.52 26.9811L374.148 28.1418ZM366.376 39.0495L374.148 28.1417L372.52 26.9811L364.747 37.8889L366.376 39.0495ZM354.417 39.4692H365.562V37.4692H354.417V39.4692ZM366.953 19.1543L353.603 37.8889L355.232 39.0495L368.581 20.3149L366.953 19.1543ZM353.603 1.58032L366.953 20.3149L368.581 19.1543L355.232 0.419684L353.603 1.58032ZM365.562 0H354.417V2H365.562V0Z" fill="url(#paint0_linear_488_1554)"/>
<defs>
<linearGradient id="paint0_linear_488_1554" x1="162.068" y1="32.3061" x2="370.678" y2="32.3061" gradientUnits="userSpaceOnUse">
<stop offset="0.350499" stop-color="#8DB12A"/>
<stop offset="0.765304" stop-color="#B183F0"/>
</linearGradient>
</defs>
</svg>
