<svg width="357" height="55" viewBox="0 0 357 55" fill="none" xmlns="http://www.w3.org/2000/svg">
<path d="M220.811 1.0332L210.324 1.0332V53.6681H220.811V1.0332Z" stroke="#B183F0" stroke-width="2" stroke-miterlimit="10"/>
<path d="M325.85 1.0332L315.363 1.0332V53.6681H325.85V1.0332Z" stroke="#B183F0" stroke-width="2" stroke-miterlimit="10"/>
<path d="M237.608 1.0332L227.121 1.0332V53.6681H237.608V1.0332Z" stroke="#B183F0" stroke-width="2" stroke-miterlimit="10"/>
<path d="M241.5 53.6687V42.8401C249.73 42.8401 256.434 35.9287 256.434 27.4188C256.434 18.9203 249.741 11.9976 241.5 11.9976V1.16895C255.518 1.16895 266.92 12.9431 266.92 27.4188C266.92 41.8945 255.518 53.6687 241.5 53.6687Z" stroke="#B183F0" stroke-width="2" stroke-miterlimit="10"/>
<path d="M307.111 31.5491L296.624 31.5491C296.624 27.2829 293.267 23.8159 289.135 23.8159C285.004 23.8159 281.647 27.2829 281.647 31.5491L271.16 31.5491C271.16 21.317 279.227 12.9873 289.135 12.9873C299.044 12.9873 307.111 21.317 307.111 31.5491Z" stroke="#B183F0" stroke-width="2" stroke-miterlimit="10"/>
<path d="M289.135 53.6682C279.227 53.6682 271.16 45.3385 271.16 35.1064H281.647C281.647 39.3726 285.004 42.8396 289.135 42.8396V53.6682Z" stroke="#B183F0" stroke-width="2" stroke-miterlimit="10"/>
<path d="M340.643 1L329.742 1L344.098 53.6686L354.999 53.6686L340.643 1Z" stroke="#B183F0" stroke-width="2" stroke-miterlimit="10"/>
<path d="M204.701 16.4326H193.462L185.625 27.2725L180 35.0507L185.625 42.8288L193.462 53.6687L204.701 53.6687L191.239 35.0507L204.701 16.4326Z" stroke="#B183F0" stroke-width="2" stroke-miterlimit="10"/>
<path d="M92.5777 43.0308L93.3937 42.4527L93.3936 42.4526L92.5777 43.0308ZM100.35 53.9994L99.5339 54.5776L99.8328 54.9994H100.35V53.9994ZM87 35.1604L86.1841 34.5821L85.7743 35.1604L86.1841 35.7386L87 35.1604ZM92.5777 27.2899L93.3936 27.8681L93.3937 27.868L92.5777 27.2899ZM100.35 16.3213V15.3213H99.8328L99.5339 15.7431L100.35 16.3213ZM111.494 16.3213L112.31 16.8995L113.429 15.3213H111.494V16.3213ZM98.1447 35.1604L97.3287 34.5822L96.919 35.1604L97.3287 35.7385L98.1447 35.1604ZM111.494 53.9994V54.9994H113.429L112.31 53.4212L111.494 53.9994ZM115.769 43.0308L116.585 42.4527L116.585 42.4526L115.769 43.0308ZM123.541 53.9994L122.725 54.5776L123.024 54.9994H123.541V53.9994ZM110.191 35.1604L109.376 34.5821L108.966 35.1604L109.376 35.7386L110.191 35.1604ZM115.769 27.2899L116.585 27.8681L116.585 27.868L115.769 27.2899ZM123.541 16.3213V15.3213H123.024L122.725 15.7431L123.541 16.3213ZM134.686 16.3213L135.502 16.8995L136.62 15.3213H134.686V16.3213ZM121.336 35.1604L120.52 34.5822L120.11 35.1604L120.52 35.7385L121.336 35.1604ZM134.686 53.9994V54.9994H136.62L135.502 53.4212L134.686 53.9994ZM146.729 53.9994L145.913 54.5776L146.212 54.9994H146.729V53.9994ZM138.957 43.0308L139.773 42.4527L139.773 42.4526L138.957 43.0308ZM157.873 53.9994V54.9994H159.808L158.689 53.4212L157.873 53.9994ZM144.524 35.1604L143.708 34.5822L143.298 35.1604L143.708 35.7385L144.524 35.1604ZM157.873 16.3213L158.689 16.8995L159.808 15.3213H157.873V16.3213ZM146.729 16.3213V15.3213H146.212L145.913 15.7431L146.729 16.3213ZM138.957 27.2899L139.773 27.8681L139.773 27.868L138.957 27.2899ZM133.379 35.1604L132.563 34.5821L132.153 35.1604L132.563 35.7386L133.379 35.1604ZM162.144 43.0308L162.96 42.4527L162.96 42.4526L162.144 43.0308ZM169.916 53.9994L169.1 54.5776L169.399 54.9994H169.916V53.9994ZM156.566 35.1604L155.751 34.5821L155.341 35.1604L155.751 35.7386L156.566 35.1604ZM162.144 27.2899L162.96 27.8681L162.96 27.868L162.144 27.2899ZM169.916 16.3213V15.3213H169.399L169.1 15.7431L169.916 16.3213ZM181.061 16.3213L181.877 16.8995L182.995 15.3213H181.061V16.3213ZM167.711 35.1604L166.895 34.5822L166.485 35.1604L166.895 35.7385L167.711 35.1604ZM181.061 53.9994V54.9994H182.995L181.877 53.4212L181.061 53.9994ZM91.7618 43.609L99.5339 54.5776L101.166 53.4213L93.3937 42.4527L91.7618 43.609ZM86.1841 35.7386L91.7619 43.6091L93.3936 42.4526L87.8159 34.5821L86.1841 35.7386ZM91.7619 26.7117L86.1841 34.5821L87.8159 35.7386L93.3936 27.8681L91.7619 26.7117ZM99.5339 15.7431L91.7618 26.7117L93.3937 27.868L101.166 16.8994L99.5339 15.7431ZM111.494 15.3213H100.35V17.3213H111.494V15.3213ZM98.9606 35.7385L112.31 16.8995L110.679 15.7431L97.3287 34.5822L98.9606 35.7385ZM112.31 53.4212L98.9606 34.5822L97.3287 35.7385L110.679 54.5776L112.31 53.4212ZM100.35 54.9994H111.494V52.9994H100.35V54.9994ZM114.953 43.609L122.725 54.5776L124.357 53.4213L116.585 42.4527L114.953 43.609ZM109.376 35.7386L114.953 43.6091L116.585 42.4526L111.007 34.5821L109.376 35.7386ZM114.953 26.7117L109.376 34.5821L111.007 35.7386L116.585 27.8681L114.953 26.7117ZM122.725 15.7431L114.953 26.7117L116.585 27.868L124.357 16.8994L122.725 15.7431ZM134.686 15.3213H123.541V17.3213H134.686V15.3213ZM122.152 35.7385L135.502 16.8995L133.87 15.7431L120.52 34.5822L122.152 35.7385ZM135.502 53.4212L122.152 34.5822L120.52 35.7385L133.87 54.5776L135.502 53.4212ZM123.541 54.9994H134.686V52.9994H123.541V54.9994ZM147.545 53.4213L139.773 42.4527L138.141 43.609L145.913 54.5776L147.545 53.4213ZM157.873 52.9994H146.729V54.9994H157.873V52.9994ZM143.708 35.7385L157.057 54.5776L158.689 53.4212L145.339 34.5822L143.708 35.7385ZM157.057 15.7431L143.708 34.5822L145.339 35.7385L158.689 16.8995L157.057 15.7431ZM146.729 17.3213H157.873V15.3213H146.729V17.3213ZM139.773 27.868L147.545 16.8994L145.913 15.7431L138.141 26.7117L139.773 27.868ZM134.195 35.7386L139.773 27.8681L138.141 26.7117L132.563 34.5821L134.195 35.7386ZM139.773 42.4526L134.195 34.5821L132.563 35.7386L138.141 43.6091L139.773 42.4526ZM161.328 43.609L169.1 54.5776L170.732 53.4213L162.96 42.4527L161.328 43.609ZM155.751 35.7386L161.328 43.6091L162.96 42.4526L157.382 34.5821L155.751 35.7386ZM161.328 26.7117L155.751 34.5821L157.382 35.7386L162.96 27.8681L161.328 26.7117ZM169.1 15.7431L161.328 26.7117L162.96 27.868L170.732 16.8994L169.1 15.7431ZM181.061 15.3213H169.916V17.3213H181.061V15.3213ZM168.527 35.7385L181.877 16.8995L180.245 15.7431L166.895 34.5822L168.527 35.7385ZM181.877 53.4212L168.527 34.5822L166.895 35.7385L180.245 54.5776L181.877 53.4212ZM169.916 54.9994H181.061V52.9994H169.916V54.9994Z" fill="url(#paint0_linear_468_1987)"/>
<path d="M80.2792 40.2759L76.5646 34.9727H71.2383L77.6186 44.0812L71.2383 53.1897H76.5646L80.2792 47.8865L82.9449 44.0812L80.2792 40.2759Z" stroke="#8DB12A" stroke-miterlimit="10"/>
<path d="M5.88664 27.8291H1V52.857H5.88664V27.8291Z" stroke="#8DB12A" stroke-miterlimit="10"/>
<path d="M54.8319 27.8291H49.9453V52.857H54.8319V27.8291Z" stroke="#8DB12A" stroke-miterlimit="10"/>
<path d="M13.7187 27.8291H8.83203V52.857H13.7187V27.8291Z" stroke="#8DB12A" stroke-miterlimit="10"/>
<path d="M15.5312 52.8558V47.7067C19.3664 47.7067 22.4904 44.4204 22.4904 40.3739C22.4904 36.3275 19.3715 33.0411 15.5312 33.0411V27.8867C22.0637 27.8867 27.377 33.4854 27.377 40.3686C27.377 47.2518 22.0637 52.8504 15.5312 52.8504V52.8558Z" stroke="#8DB12A" stroke-miterlimit="10"/>
<path d="M46.1043 42.3398H41.2177C41.2177 40.3112 39.6531 38.6627 37.7279 38.6627C35.8027 38.6627 34.2382 40.3112 34.2382 42.3398H29.3516C29.3516 37.4745 33.1105 33.5137 37.7279 33.5137C42.3453 33.5137 46.1043 37.4745 46.1043 42.3398Z" stroke="#8DB12A" stroke-miterlimit="10"/>
<path d="M37.7279 52.8574C33.1105 52.8574 29.3516 48.8966 29.3516 44.0312H34.2382C34.2382 46.0598 35.8027 47.7084 37.7279 47.7084V52.8574Z" stroke="#8DB12A" stroke-miterlimit="10"/>
<path d="M61.7281 27.8125H56.6484L63.3384 52.8565H68.4129L61.7281 27.8125Z" stroke="#8DB12A" stroke-miterlimit="10"/>
<defs>
<linearGradient id="paint0_linear_468_1987" x1="181.028" y1="35.4737" x2="84.6493" y2="35.4737" gradientUnits="userSpaceOnUse">
<stop offset="0.385959" stop-color="#B183F0"/>
<stop offset="0.781105" stop-color="#8DB12A"/>
</linearGradient>
</defs>
</svg>
