<svg width="355" height="55" viewBox="0 0 355 55" fill="none" xmlns="http://www.w3.org/2000/svg">
<path d="M119.422 1V0H118.118L118.456 1.25942L119.422 1ZM130.231 1L131.197 0.740763L130.998 0H130.231V1ZM133.658 53.9983L132.692 54.2577L132.891 54.9983H133.658V53.9983ZM144.457 53.9983V54.9983H145.761L145.423 53.739L144.457 53.9983ZM11.3988 1.03348H12.3988V0.0334796H11.3988V1.03348ZM1 1.03348V0.0334796H0V1.03348H1ZM11.3988 53.9978V54.9978H12.3988V53.9978H11.3988ZM1 53.9978H0V54.9978H1V53.9978ZM115.559 1.03534H116.559V0.0353396H115.559V1.03534ZM105.16 1.03534V0.0353396H104.16V1.03534H105.16ZM115.559 53.9996V54.9996H116.559V53.9996H115.559ZM105.16 53.9996H104.16V54.9996H105.16V53.9996ZM17.6602 1.03534V0.0353396H16.6602V1.03534H17.6602ZM28.059 1.03534H29.059V0.0353396H28.059V1.03534ZM17.6602 53.9996H16.6602V54.9996H17.6602V53.9996ZM28.059 53.9996V54.9996H29.059V53.9996H28.059ZM31.9141 53.9874H30.9141V54.9874H31.9141V53.9874ZM31.9141 43.1023V42.1023H30.9141V43.1023H31.9141ZM31.9141 1.15903V0.159028H30.9141V1.15903H31.9141ZM31.9141 12.0668H30.9141V13.0668H31.9141V12.0668ZM86.5793 31.7418H85.5793V32.7418H86.5793V31.7418ZM96.9781 31.7418V32.7418H97.9781V31.7418H96.9781ZM71.7269 31.7418V32.7418H72.7269V31.7418H71.7269ZM61.3281 31.7418H60.3281V32.7418H61.3281V31.7418ZM79.1531 53.9992V54.9992H80.1531V53.9992H79.1531ZM61.3281 35.3212V34.3212H60.3281V35.3212H61.3281ZM79.1531 43.1028H80.1531V42.1028H79.1531V43.1028ZM71.7269 35.3212H72.7269V34.3212H71.7269V35.3212ZM169.803 27.4386L168.989 28.0189L168.989 28.0189L169.803 27.4386ZM162.031 16.5308L162.846 15.9505L162.547 15.5308H162.031V16.5308ZM175.381 35.2654L176.196 35.8458L176.609 35.2654L176.196 34.6851L175.381 35.2654ZM169.803 43.0923L168.989 42.5119L168.989 42.512L169.803 43.0923ZM162.031 54V55H162.547L162.846 54.5803L162.031 54ZM150.887 54L150.072 53.4197L148.946 55H150.887V54ZM164.237 35.2654L165.051 35.8457L165.464 35.2654L165.051 34.6851L164.237 35.2654ZM150.887 16.5308V15.5308H148.946L150.072 17.1111L150.887 16.5308ZM185.219 16.5308L186.033 15.9505L185.734 15.5308H185.219V16.5308ZM192.991 27.4386L192.177 28.0189L192.177 28.0189L192.991 27.4386ZM174.074 16.5308V15.5308H172.134L173.26 17.1111L174.074 16.5308ZM187.424 35.2654L188.238 35.8457L188.652 35.2654L188.238 34.6851L187.424 35.2654ZM174.074 54L173.26 53.4197L172.134 55H174.074V54ZM185.219 54V55H185.734L186.033 54.5803L185.219 54ZM192.991 43.0923L192.177 42.5119L192.177 42.512L192.991 43.0923ZM198.569 35.2654L199.383 35.8458L199.797 35.2654L199.383 34.6851L198.569 35.2654ZM216.182 27.4386L215.368 28.0189L215.368 28.0189L216.182 27.4386ZM208.41 16.5308L209.225 15.9505L208.926 15.5308H208.41V16.5308ZM221.76 35.2654L222.574 35.8458L222.988 35.2654L222.574 34.6851L221.76 35.2654ZM216.182 43.0923L215.368 42.5119L215.368 42.512L216.182 43.0923ZM208.41 54V55H208.926L209.225 54.5803L208.41 54ZM197.266 54L196.451 53.4197L195.325 55H197.266V54ZM210.615 35.2654L211.43 35.8457L211.843 35.2654L211.43 34.6851L210.615 35.2654ZM197.266 16.5308V15.5308H195.325L196.451 17.1111L197.266 16.5308ZM231.598 16.5308L232.412 15.9505L232.113 15.5308H231.598V16.5308ZM239.37 27.4386L238.555 28.0189L238.556 28.0189L239.37 27.4386ZM220.453 16.5308V15.5308H218.513L219.639 17.1111L220.453 16.5308ZM233.803 35.2654L234.617 35.8457L235.031 35.2654L234.617 34.6851L233.803 35.2654ZM220.453 54L219.639 53.4197L218.513 55H220.453V54ZM231.598 54V55H232.113L232.412 54.5803L231.598 54ZM239.37 43.0923L238.556 42.5119L238.555 42.512L239.37 43.0923ZM244.948 35.2654L245.762 35.8458L246.176 35.2654L245.762 34.6851L244.948 35.2654ZM262.557 27.4386L261.743 28.0189L261.743 28.0189L262.557 27.4386ZM254.785 16.5308L255.6 15.9505L255.301 15.5308H254.785V16.5308ZM268.135 35.2654L268.949 35.8458L269.363 35.2654L268.949 34.6851L268.135 35.2654ZM262.557 43.0923L261.743 42.5119L261.743 42.512L262.557 43.0923ZM254.785 54V55H255.301L255.6 54.5803L254.785 54ZM243.641 54L242.826 53.4197L241.7 55H243.641V54ZM256.99 35.2654L257.805 35.8457L258.218 35.2654L257.805 34.6851L256.99 35.2654ZM243.641 16.5308V15.5308H241.7L242.826 17.1111L243.641 16.5308ZM119.422 2H130.231V0H119.422V2ZM134.624 53.7389L120.388 0.74058L118.456 1.25942L132.692 54.2577L134.624 53.7389ZM144.457 52.9983H133.658V54.9983H144.457V52.9983ZM129.266 1.25924L143.491 54.2575L145.423 53.739L131.197 0.740763L129.266 1.25924ZM11.3988 0.0334796H1V2.03348H11.3988V0.0334796ZM12.3988 53.9978V1.03348H10.3988V53.9978H12.3988ZM1 54.9978H11.3988V52.9978H1V54.9978ZM0 1.03348V53.9978H2V1.03348H0ZM115.559 0.0353396H105.16V2.03534H115.559V0.0353396ZM116.559 53.9996V1.03534H114.559V53.9996H116.559ZM105.16 54.9996H115.559V52.9996H105.16V54.9996ZM104.16 1.03534V53.9996H106.16V1.03534H104.16ZM17.6602 2.03534H28.059V0.0353396H17.6602V2.03534ZM18.6602 53.9996V1.03534H16.6602V53.9996H18.6602ZM28.059 52.9996H17.6602V54.9996H28.059V52.9996ZM27.059 1.03534V53.9996H29.059V1.03534H27.059ZM32.9141 53.9874V43.1023H30.9141V53.9874H32.9141ZM56.122 27.5732C56.122 41.6318 45.2193 52.9874 31.9141 52.9874V54.9874C46.411 54.9874 58.122 42.6472 58.122 27.5732H56.122ZM31.9141 2.15903C45.2193 2.15903 56.122 13.5146 56.122 27.5732H58.122C58.122 12.4992 46.411 0.159028 31.9141 0.159028V2.15903ZM32.9141 12.0668V1.15903H30.9141V12.0668H32.9141ZM47.7232 27.5845C47.7232 18.5137 40.6819 11.0668 31.9141 11.0668V13.0668C39.4903 13.0668 45.7232 19.5292 45.7232 27.5845H47.7232ZM31.9141 44.1023C40.6706 44.1023 47.7232 36.6558 47.7232 27.5845H45.7232C45.7232 35.6394 39.4799 42.1023 31.9141 42.1023V44.1023ZM86.5793 32.7418H96.9781V30.7418H86.5793V32.7418ZM79.1531 24.9602C82.6541 24.9602 85.5793 27.9566 85.5793 31.7418H87.5793C87.5793 26.9412 83.8458 22.9602 79.1531 22.9602V24.9602ZM72.7269 31.7418C72.7269 27.9566 75.6521 24.9602 79.1531 24.9602V22.9602C74.4605 22.9602 70.7269 26.9412 70.7269 31.7418H72.7269ZM61.3281 32.7418H71.7269V30.7418H61.3281V32.7418ZM79.1531 12.0638C68.7314 12.0638 60.3281 20.938 60.3281 31.7418H62.3281C62.3281 21.9534 69.923 14.0638 79.1531 14.0638V12.0638ZM97.9781 31.7418C97.9781 20.938 89.5748 12.0638 79.1531 12.0638V14.0638C88.3832 14.0638 95.9781 21.9534 95.9781 31.7418H97.9781ZM79.1531 52.9992C69.923 52.9992 62.3281 45.1096 62.3281 35.3212H60.3281C60.3281 46.1251 68.7314 54.9992 79.1531 54.9992V52.9992ZM78.1531 43.1028V53.9992H80.1531V43.1028H78.1531ZM70.7269 35.3212C70.7269 40.1218 74.4605 44.1028 79.1531 44.1028V42.1028C75.6521 42.1028 72.7269 39.1064 72.7269 35.3212H70.7269ZM61.3281 36.3212H71.7269V34.3212H61.3281V36.3212ZM170.618 26.8583L162.846 15.9505L161.217 17.1111L168.989 28.0189L170.618 26.8583ZM176.196 34.6851L170.618 26.8582L168.989 28.0189L174.567 35.8458L176.196 34.6851ZM170.618 43.6726L176.196 35.8458L174.567 34.6851L168.989 42.5119L170.618 43.6726ZM162.846 54.5803L170.618 43.6725L168.989 42.512L161.217 53.4197L162.846 54.5803ZM150.887 55H162.031V53H150.887V55ZM163.422 34.6851L150.072 53.4197L151.701 54.5803L165.051 35.8457L163.422 34.6851ZM150.072 17.1111L163.422 35.8457L165.051 34.6851L151.701 15.9505L150.072 17.1111ZM162.031 15.5308H150.887V17.5308H162.031V15.5308ZM184.404 17.1111L192.177 28.0189L193.805 26.8583L186.033 15.9505L184.404 17.1111ZM174.074 17.5308H185.219V15.5308H174.074V17.5308ZM188.238 34.6851L174.889 15.9505L173.26 17.1111L186.61 35.8457L188.238 34.6851ZM174.889 54.5803L188.238 35.8457L186.61 34.6851L173.26 53.4197L174.889 54.5803ZM185.219 53H174.074V55H185.219V53ZM192.177 42.512L184.404 53.4197L186.033 54.5803L193.805 43.6725L192.177 42.512ZM197.754 34.6851L192.177 42.5119L193.805 43.6726L199.383 35.8458L197.754 34.6851ZM192.177 28.0189L197.754 35.8458L199.383 34.6851L193.805 26.8582L192.177 28.0189ZM216.997 26.8583L209.225 15.9505L207.596 17.1111L215.368 28.0189L216.997 26.8583ZM222.574 34.6851L216.997 26.8582L215.368 28.0189L220.946 35.8458L222.574 34.6851ZM216.997 43.6726L222.574 35.8458L220.946 34.6851L215.368 42.5119L216.997 43.6726ZM209.225 54.5803L216.997 43.6725L215.368 42.512L207.596 53.4197L209.225 54.5803ZM197.266 55H208.41V53H197.266V55ZM209.801 34.6851L196.451 53.4197L198.08 54.5803L211.43 35.8457L209.801 34.6851ZM196.451 17.1111L209.801 35.8457L211.43 34.6851L198.08 15.9505L196.451 17.1111ZM208.41 15.5308H197.266V17.5308H208.41V15.5308ZM230.783 17.1111L238.555 28.0189L240.184 26.8583L232.412 15.9505L230.783 17.1111ZM220.453 17.5308H231.598V15.5308H220.453V17.5308ZM234.617 34.6851L221.268 15.9505L219.639 17.1111L232.989 35.8457L234.617 34.6851ZM221.268 54.5803L234.617 35.8457L232.989 34.6851L219.639 53.4197L221.268 54.5803ZM231.598 53H220.453V55H231.598V53ZM238.555 42.512L230.783 53.4197L232.412 54.5803L240.184 43.6725L238.555 42.512ZM244.133 34.6851L238.556 42.5119L240.184 43.6726L245.762 35.8458L244.133 34.6851ZM238.556 28.0189L244.133 35.8458L245.762 34.6851L240.184 26.8582L238.556 28.0189ZM263.372 26.8583L255.6 15.9505L253.971 17.1111L261.743 28.0189L263.372 26.8583ZM268.949 34.6851L263.372 26.8582L261.743 28.0189L267.321 35.8458L268.949 34.6851ZM263.372 43.6726L268.949 35.8458L267.321 34.6851L261.743 42.5119L263.372 43.6726ZM255.6 54.5803L263.372 43.6725L261.743 42.512L253.971 53.4197L255.6 54.5803ZM243.641 55H254.785V53H243.641V55ZM256.176 34.6851L242.826 53.4197L244.455 54.5803L257.805 35.8457L256.176 34.6851ZM242.826 17.1111L256.176 35.8457L257.805 34.6851L244.455 15.9505L242.826 17.1111ZM254.785 15.5308H243.641V17.5308H254.785V15.5308Z" fill="url(#paint0_linear_468_1906)"/>
<path d="M289.784 28.5254H284.766V53.7466H289.784V28.5254Z" stroke="#B183F0" stroke-miterlimit="10"/>
<path d="M340.049 28.5254H335.031V53.7466H340.049V28.5254Z" stroke="#B183F0" stroke-miterlimit="10"/>
<path d="M297.823 28.5254H292.805V53.7466H297.823V28.5254Z" stroke="#B183F0" stroke-miterlimit="10"/>
<path d="M299.684 53.7473V48.5585C303.622 48.5585 306.83 45.2468 306.83 41.1691C306.83 37.0968 303.627 33.7796 299.684 33.7796V28.5908C306.392 28.5908 311.848 34.2327 311.848 41.1691C311.848 48.1054 306.392 53.7473 299.684 53.7473Z" stroke="#B183F0" stroke-miterlimit="10"/>
<path d="M331.083 43.1472H326.065C326.065 41.103 324.458 39.4417 322.481 39.4417C320.504 39.4417 318.897 41.103 318.897 43.1472H313.879C313.879 38.2443 317.739 34.2529 322.481 34.2529C327.223 34.2529 331.083 38.2443 331.083 43.1472Z" stroke="#B183F0" stroke-miterlimit="10"/>
<path d="M322.481 53.7469C317.739 53.7469 313.879 49.7555 313.879 44.8525H318.897C318.897 46.8968 320.504 48.5581 322.481 48.5581V53.7469Z" stroke="#B183F0" stroke-miterlimit="10"/>
<path d="M347.131 28.5098H341.914L348.784 53.7472H354.001L347.131 28.5098Z" stroke="#B183F0" stroke-miterlimit="10"/>
<path d="M282.074 35.9033H276.696L272.946 41.0975L270.254 44.8246L272.946 48.5517L276.696 53.7459H282.074L275.632 44.8246L282.074 35.9033Z" stroke="#B183F0" stroke-miterlimit="10"/>
<defs>
<linearGradient id="paint0_linear_468_1906" x1="118.676" y1="45.2823" x2="262.46" y2="45.2823" gradientUnits="userSpaceOnUse">
<stop offset="0.447917" stop-color="#8DB12A"/>
<stop offset="1" stop-color="#B183F0"/>
</linearGradient>
</defs>
</svg>
