<svg width="22" height="22" viewBox="0 0 22 22" fill="none" xmlns="http://www.w3.org/2000/svg">
<path fill-rule="evenodd" clip-rule="evenodd" d="M1.55 6.25C1.55 3.65426 3.65426 1.55 6.25 1.55H16.25C18.8457 1.55 20.95 3.65426 20.95 6.25V16.25C20.95 18.8457 18.8457 20.95 16.25 20.95H6.25C3.65426 20.95 1.55 18.8457 1.55 16.25V6.25ZM6.25 0.95C3.32289 0.95 0.95 3.32289 0.95 6.25V16.25C0.95 19.1771 3.32289 21.55 6.25 21.55H16.25C19.1771 21.55 21.55 19.1771 21.55 16.25V6.25C21.55 3.32289 19.1771 0.95 16.25 0.95H6.25ZM16.75 11.25C16.75 14.2876 14.2876 16.75 11.25 16.75C8.21243 16.75 5.75 14.2876 5.75 11.25C5.75 8.21243 8.21243 5.75 11.25 5.75C14.2876 5.75 16.75 8.21243 16.75 11.25ZM17.25 11.25C17.25 14.5637 14.5637 17.25 11.25 17.25C7.93629 17.25 5.25 14.5637 5.25 11.25C5.25 7.93629 7.93629 5.25 11.25 5.25C14.5637 5.25 17.25 7.93629 17.25 11.25ZM11.25 14.75C13.183 14.75 14.75 13.183 14.75 11.25C14.75 9.317 13.183 7.75 11.25 7.75C9.317 7.75 7.75 9.317 7.75 11.25C7.75 13.183 9.317 14.75 11.25 14.75ZM11.25 15.25C13.4591 15.25 15.25 13.4591 15.25 11.25C15.25 9.04086 13.4591 7.25 11.25 7.25C9.04086 7.25 7.25 9.04086 7.25 11.25C7.25 13.4591 9.04086 15.25 11.25 15.25ZM18.75 4.75C18.75 5.30228 18.3023 5.75 17.75 5.75C17.1977 5.75 16.75 5.30228 16.75 4.75C16.75 4.19772 17.1977 3.75 17.75 3.75C18.3023 3.75 18.75 4.19772 18.75 4.75ZM19.25 4.75C19.25 5.57843 18.5784 6.25 17.75 6.25C16.9216 6.25 16.25 5.57843 16.25 4.75C16.25 3.92157 16.9216 3.25 17.75 3.25C18.5784 3.25 19.25 3.92157 19.25 4.75Z" fill="#707070"/>
</svg>
