<svg width="269" height="40" viewBox="0 0 269 40" fill="none" xmlns="http://www.w3.org/2000/svg">
<path d="M0.25 0.276367H7.77064V39.7502H0.25V0.276367Z" stroke="#8DB12A" stroke-width="0.5" stroke-miterlimit="10"/>
<path d="M80.5898 0.276367H88.1105V39.7502H80.5898V0.276367Z" stroke="#8DB12A" stroke-width="0.5" stroke-miterlimit="10"/>
<path d="M13.0977 0.276367H20.6183V39.7502H13.0977V0.276367Z" stroke="#8DB12A" stroke-width="0.5" stroke-miterlimit="10"/>
<path d="M24.0938 0.371762C34.5572 0.509481 43.0367 9.27991 43.0367 20.0557C43.0367 30.8316 34.5572 39.602 24.0938 39.7397V32.0233C30.4173 31.8866 35.5161 26.5738 35.5161 20.0643C35.5161 13.5548 30.4253 8.24183 24.0938 8.10523V0.371762Z" stroke="#8DB12A" stroke-width="0.5" stroke-miterlimit="10"/>
<path d="M46.7834 22.9513C46.914 15.4277 52.9262 9.35449 60.2797 9.35449C67.6333 9.35449 73.6455 15.4277 73.776 22.9513H66.2527C66.1244 19.6943 63.5015 17.0784 60.2797 17.0784C57.0579 17.0784 54.4351 19.6943 54.3068 22.9513H46.7834Z" stroke="#8DB12A" stroke-width="0.5" stroke-miterlimit="10"/>
<path d="M60.0297 39.7468C52.7904 39.6111 46.9125 33.5905 46.7834 26.1523H54.3068C54.4317 29.3247 56.9233 31.8889 60.0297 32.02V39.7468Z" stroke="#8DB12A" stroke-width="0.5" stroke-miterlimit="10"/>
<path d="M110.318 39.7495H102.507L91.6638 0.25H99.4827L110.318 39.7495Z" stroke="#8DB12A" stroke-width="0.5" stroke-miterlimit="10"/>
<path d="M129.994 20.1003L129.994 20.1003L134.189 25.8603L129.994 31.6203L129.994 31.6203L124.074 39.7499H116.097L126.104 26.0075L126.212 25.8603L126.104 25.7131L116.097 11.9707H124.074L129.994 20.1003Z" stroke="#8DB12A" stroke-width="0.5" stroke-miterlimit="10"/>
<path d="M158.059 0.275391L165.618 0.275391V39.7461H158.059V0.275391Z" stroke="#B183F0" stroke-width="0.5" stroke-miterlimit="10"/>
<path d="M238.789 0.275391L246.349 0.275391V39.7461H238.789V0.275391Z" stroke="#B183F0" stroke-width="0.5" stroke-miterlimit="10"/>
<path d="M170.969 0.275391L178.528 0.275391V39.7461H170.969V0.275391Z" stroke="#B183F0" stroke-width="0.5" stroke-miterlimit="10"/>
<path d="M182.02 0.379558C192.536 0.516602 201.057 9.28775 201.057 20.062C201.057 30.8362 192.536 39.6074 182.02 39.7444V32.0201C188.373 31.884 193.497 26.5725 193.497 20.062C193.497 13.56 188.381 8.23998 182.02 8.10382V0.379558Z" stroke="#B183F0" stroke-width="0.5" stroke-miterlimit="10"/>
<path d="M204.819 22.9492C204.95 15.4273 210.991 9.35352 218.382 9.35352C225.773 9.35352 231.814 15.4273 231.945 22.9492L224.382 22.9492C224.254 19.6914 221.617 17.0767 218.382 17.0767C215.146 17.0767 212.51 19.6914 212.381 22.9492H204.819Z" stroke="#B183F0" stroke-width="0.5" stroke-miterlimit="10"/>
<path d="M218.132 39.7438C210.855 39.6087 204.948 33.5873 204.819 26.1504H212.381C212.507 29.3239 215.011 31.8871 218.132 32.0177V39.7438Z" stroke="#B183F0" stroke-width="0.5" stroke-miterlimit="10"/>
<path d="M268.673 39.7463H260.814L249.918 0.25L257.777 0.25L268.673 39.7463Z" stroke="#B183F0" stroke-width="0.5" stroke-miterlimit="10"/>
<path d="M152.992 11.9697L142.936 25.7106L142.828 25.8582L142.936 26.0058L152.992 39.7467H144.974L139.025 31.6173L139.025 31.6173L134.81 25.8582L139.025 20.0991L139.025 20.0991L144.974 11.9697L152.992 11.9697Z" stroke="#B183F0" stroke-width="0.5" stroke-miterlimit="10"/>
</svg>
