<svg width="270" height="40" viewBox="0 0 270 40" fill="none" xmlns="http://www.w3.org/2000/svg">
<path d="M8.52064 0.0263672H0.5V40.0002H8.52064V0.0263672Z" fill="#8DB12A"/>
<path d="M88.8605 0.0263672H80.8398V40.0002H88.8605V0.0263672Z" fill="#8DB12A"/>
<path d="M21.3683 0.0263672H13.3477V40.0002H21.3683V0.0263672Z" fill="#8DB12A"/>
<path d="M24.3438 39.9999V31.776C30.6385 31.776 35.7661 26.5271 35.7661 20.0643C35.7661 13.6014 30.6469 8.35253 24.3438 8.35253V0.120117C35.0657 0.120117 43.7867 9.06208 43.7867 20.0557C43.7867 31.0494 35.0657 39.9913 24.3438 39.9913V39.9999Z" fill="#8DB12A"/>
<path d="M74.5282 23.2013H66.5076C66.5076 19.9614 63.9396 17.3284 60.7797 17.3284C57.6198 17.3284 55.0519 19.9614 55.0519 23.2013H47.0312C47.0312 15.4305 53.201 9.10449 60.7797 9.10449C68.3585 9.10449 74.5282 15.4305 74.5282 23.2013Z" fill="#8DB12A"/>
<path d="M60.7797 39.9992C53.201 39.9992 47.0312 33.6731 47.0312 25.9023H55.0519C55.0519 29.1423 57.6198 31.7753 60.7797 31.7753V39.9992Z" fill="#8DB12A"/>
<path d="M100.173 0L91.8359 0L102.816 39.9995H111.146L100.173 0Z" fill="#8DB12A"/>
<path d="M130.696 19.9531L124.701 11.7207H116.105L126.402 25.8603L116.105 39.9999H124.701L130.696 31.7675L134.998 25.8603L130.696 19.9531Z" fill="#8DB12A"/>
<path d="M166.368 0.0253906L158.309 0.0253906V39.9961H166.368V0.0253906Z" fill="#B183F0"/>
<path d="M247.099 0.0253906L239.039 0.0253906V39.9961H247.099V0.0253906Z" fill="#B183F0"/>
<path d="M179.278 0.0253906L171.219 0.0253906V39.9961H179.278V0.0253906Z" fill="#B183F0"/>
<path d="M182.27 39.996V31.7728C188.595 31.7728 193.747 26.5243 193.747 20.062C193.747 13.6082 188.603 8.35115 182.27 8.35115V0.12793C193.044 0.12793 201.807 9.06919 201.807 20.062C201.807 31.0548 193.044 39.996 182.27 39.996Z" fill="#B183F0"/>
<path d="M232.697 23.1992L224.637 23.1992C224.637 19.9595 222.057 17.3267 218.882 17.3267C215.706 17.3267 213.126 19.9595 213.126 23.1992H205.066C205.066 15.4291 211.266 9.10352 218.882 9.10352C226.497 9.10352 232.697 15.4291 232.697 23.1992Z" fill="#B183F0"/>
<path d="M218.882 39.9961C211.266 39.9961 205.066 33.6706 205.066 25.9004H213.126C213.126 29.1401 215.706 31.7729 218.882 31.7729V39.9961Z" fill="#B183F0"/>
<path d="M258.468 0L250.09 0L261.124 39.9963H269.502L258.468 0Z" fill="#B183F0"/>
<path d="M153.984 11.7197L145.347 11.7197L139.323 19.9515L135 25.8582L139.323 31.7649L145.347 39.9967H153.984L143.638 25.8582L153.984 11.7197Z" fill="#B183F0"/>
</svg>
