<svg width="20" height="16" viewBox="0 0 20 16" fill="none" xmlns="http://www.w3.org/2000/svg">
<path d="M18.9049 2.69406C18.8329 2.71753 18.7549 2.73514 18.6829 2.75862C18.287 2.86427 17.879 2.94057 17.4651 2.98753C17.3091 3.00514 17.1711 2.89362 17.1531 2.74101C17.1411 2.62362 17.2011 2.51211 17.3031 2.46515C17.681 2.24211 18.017 1.95451 18.287 1.61409C18.4009 1.47322 18.5029 1.32649 18.5989 1.16801C18.4249 1.25018 18.245 1.32062 18.059 1.39105C17.6271 1.55539 17.1711 1.67865 16.7092 1.77256C16.6072 1.79017 16.5052 1.75495 16.4392 1.67865C16.0973 1.32649 15.6833 1.03888 15.2154 0.845194C14.7655 0.657373 14.2675 0.551724 13.7396 0.551724C12.7197 0.551724 11.7899 0.956713 11.124 1.61409C10.4521 2.27146 10.0381 3.17535 10.0381 4.17315C10.0381 4.31988 10.0441 4.45488 10.0621 4.58988C10.0801 4.73074 10.1041 4.86574 10.1341 4.99486C10.1701 5.1416 10.0741 5.2942 9.92413 5.32355C9.89413 5.32942 9.86414 5.32942 9.83414 5.32942C8.16638 5.24725 6.5946 4.81878 5.19079 4.12032C3.86498 3.46295 2.68315 2.55906 1.70528 1.47322C1.62729 1.64343 1.5673 1.81365 1.51931 1.9956C1.43532 2.30081 1.39333 2.61775 1.39333 2.94057C1.39333 3.55686 1.5493 4.1438 1.82527 4.64857C2.11323 5.17682 2.52717 5.62289 3.0371 5.95158C3.16908 6.03375 3.20507 6.20983 3.11508 6.33309C3.05509 6.42113 2.95311 6.46222 2.85712 6.45635C2.52117 6.44461 2.19121 6.39765 1.87926 6.30961C1.70528 6.26266 1.54331 6.20983 1.38133 6.1394C1.45932 6.85547 1.75328 7.50697 2.19721 8.03522C2.73114 8.66911 3.47503 9.12693 4.33291 9.29127C4.48889 9.32062 4.58488 9.46735 4.55488 9.61996C4.53089 9.73147 4.4469 9.80778 4.34491 9.83712C4.17094 9.88408 3.98496 9.9193 3.79299 9.94277C3.60102 9.96625 3.41504 9.97799 3.22907 9.97799C3.12708 9.97799 3.0191 9.97212 2.91111 9.96625C3.17508 10.518 3.57102 10.9934 4.06295 11.3514C4.66287 11.7858 5.40076 12.0499 6.19865 12.0675C6.35463 12.0675 6.48061 12.1966 6.47461 12.3492C6.47461 12.4373 6.43262 12.5136 6.36663 12.5605C5.64673 13.1123 4.83084 13.5525 3.95497 13.8459C3.16908 14.1101 2.3292 14.2627 1.45332 14.2861C2.04124 14.5737 2.65915 14.8144 3.29506 14.9963C3.30106 14.9963 3.30106 14.9963 3.30706 15.0022C4.28492 15.2839 5.32278 15.4307 6.40262 15.4307C9.69016 15.4307 12.2938 14.204 14.1415 12.3962C16.3192 10.2656 17.4591 7.32502 17.4591 4.61335V4.36684C17.4591 4.29054 17.4531 4.20836 17.4531 4.12032C17.4471 4.02641 17.4951 3.93837 17.5731 3.88555C17.945 3.62142 18.293 3.32795 18.6169 3.00514C18.7189 2.89949 18.8149 2.79384 18.9109 2.68819L18.9049 2.69406ZM18.5329 2.2245C18.8929 2.13059 19.2468 2.00734 19.5828 1.8606C19.6908 1.80191 19.8287 1.81952 19.9187 1.90756C20.0207 2.00734 20.0267 2.17168 19.9367 2.27733C19.6608 2.67645 19.3548 3.05209 19.0129 3.39252C18.7069 3.7036 18.3709 3.9912 18.017 4.25532V4.36684C18.017 4.48423 18.023 4.57227 18.023 4.62509C18.023 7.47762 16.8232 10.5649 14.5375 12.8012C12.5878 14.7087 9.85214 16 6.39662 16C5.26878 16 4.17694 15.8415 3.14508 15.5481C3.13908 15.5481 3.13308 15.5481 3.13308 15.5422C2.06523 15.237 1.06337 14.785 0.145501 14.2098C0.0495146 14.157 -0.010477 14.0514 0.0015213 13.934C0.0195188 13.7814 0.163499 13.6757 0.313478 13.6933C0.469456 13.7109 0.619435 13.7227 0.769414 13.7344C0.913393 13.7403 1.06937 13.7461 1.23135 13.7461C2.11922 13.7461 2.96511 13.5994 3.75699 13.3353C4.34491 13.1357 4.90283 12.8716 5.41276 12.5488C4.78285 12.4255 4.20693 12.1673 3.709 11.8092C3.0011 11.2927 2.46118 10.5708 2.18522 9.73147C2.17322 9.69039 2.16722 9.64343 2.17322 9.59648C2.20321 9.44387 2.34719 9.34409 2.50317 9.37344C2.61715 9.39105 2.73714 9.40866 2.85112 9.4204C2.90511 9.42627 2.96511 9.43214 3.0191 9.43214C2.52717 9.17388 2.08923 8.81585 1.73528 8.39912C1.13536 7.67718 0.769414 6.75569 0.769414 5.75202V5.70506C0.769414 5.65811 0.781412 5.61702 0.805409 5.57007C0.877399 5.43507 1.05137 5.38811 1.18935 5.45855C1.42332 5.5818 1.66329 5.68158 1.92125 5.75789C1.68129 5.5055 1.47731 5.2179 1.30934 4.91269C0.985383 4.32575 0.805409 3.65077 0.805409 2.94644C0.805409 2.57667 0.853402 2.21277 0.955388 1.8606C1.05137 1.50844 1.19535 1.16801 1.38733 0.845194C1.40532 0.815847 1.42332 0.79237 1.45332 0.768892C1.5733 0.674982 1.75328 0.69259 1.84926 0.809978C2.82113 1.97799 4.03896 2.94644 5.43076 3.63316C6.67259 4.24945 8.04639 4.6427 9.50419 4.76009C9.49819 4.72487 9.49219 4.68966 9.49219 4.65444C9.47419 4.49596 9.46219 4.33162 9.46219 4.17315C9.46219 3.02274 9.94213 1.97799 10.71 1.22084C11.4839 0.463683 12.5458 0 13.7276 0C14.3275 0 14.9034 0.123258 15.4254 0.340426C15.9173 0.545855 16.3552 0.839325 16.7332 1.20323C17.1111 1.12106 17.4831 1.01541 17.843 0.880411C18.257 0.727806 18.6529 0.539985 19.0249 0.322817C19.0908 0.281731 19.1748 0.269993 19.2528 0.29934C19.4028 0.346295 19.4808 0.498899 19.4328 0.645635C19.2708 1.1328 19.0249 1.57887 18.7069 1.96625C18.6289 2.06016 18.5509 2.15407 18.4669 2.24211L18.5089 2.23037L18.5329 2.2245Z" fill="#707070"/>
</svg>
